<?xml version="1.0" standalone="no"?>
<svg xmlns:xlink="http://www.w3.org/1999/xlink" xmlns="http://www.w3.org/2000/svg" class="vtree" width="960" height="800"><style>
.vtree-node text { font: 14px sans-serif; }
.vtree-link { fill: none; stroke: #888; stroke-width: 2px; }
.vtree-table { stroke-width: 2px; stroke: steelblue; }
path.vtree-table { fill: white; }
g.vtree-node rect { fill: white; stroke: black; stroke-width: 1px; }
g.vtree-node rect.number-text { fill: #d8f0ed; }
g.vtree-node rect.string-text { fill: #e7f0db; }
g.vtree-node rect.boolean-text { fill: #e1d8f0; }
g.vtree-node rect.null-text { fill: #888; }
</style><g class="vtree-root" transform="translate(353.8638299951377,233.96709390996142)scale(0.27782891837727014)"><g class="vtree-node" transform="translate(480,106)"><g class="vtree-node" transform="translate(-42,0)"><path class="vtree-link" d="M42,12C42,59 -681,59 -681,106"/><g class="vtree-node" transform="translate(42,74)"><path class="vtree-link" d="M-723,32C-723,32 796,32 796,32"/><g class="vtree-node" transform="translate(-795,0)"><path class="vtree-link" d="M72,32C72,79 -431,79 -431,126"/><g class="vtree-node" transform="translate(72,94)"><path class="vtree-link" d="M-503,32C-503,32 293,32 293,32"/><g class="vtree-node" transform="translate(-569,0)"><path class="vtree-link" d="M66,32C66,79 -7,79 -7,126"/><g class="vtree-node" transform="translate(66,94)"><path class="vtree-link" d="M-73,32C-73,32 220,32 220,32"/><g class="vtree-node" transform="translate(-145,0)"><path class="vtree-link" d="M72,32C72,79 0,79 0,126"/><g class="vtree-node" transform="translate(72,94)"><path class="vtree-link" d="M-72,32C-72,32 148,32 148,32"/><g class="vtree-node" transform="translate(-143,0)"><path class="vtree-link" d="M71,32C71,79 -1,79 -1,126"/><g class="vtree-node" transform="translate(71,94)"><path class="vtree-link" d="M-72,32C-72,32 76,32 76,32"/><g class="vtree-node" transform="translate(-143,0)"><path class="vtree-link" d="M71,32C71,79 71,79 71,126"/><g class="vtree-node" transform="translate(71,94)"><g class="vtree-node" transform="translate(-62,0)"><g transform="translate(0,20)"><g transform="translate(0,0)"><rect class="string-text" x="0" y="0" width="44" height="24"/><text x="4" y="20">name</text></g><g transform="translate(44,0)"><rect class="string-text" x="0" y="0" width="80" height="24"/><text x="4" y="20">Predict: 0.0</text></g></g><g><text x="62" y="16" text-anchor="middle">children[0]</text></g></g></g><g transform="translate(0,20)"><g transform="translate(0,0)"><rect class="string-text" x="0" y="0" width="44" height="24"/><text x="4" y="20">name</text></g><g transform="translate(44,0)"><rect class="string-text" x="0" y="0" width="98" height="24"/><text x="4" y="20">KTMT &lt;= 5.75</text></g></g><g><text x="71" y="16" text-anchor="middle">children[0]</text></g></g><g class="vtree-node" transform="translate(9,0)"><path class="vtree-link" d="M67,32C67,79 67,79 67,126"/><g class="vtree-node" transform="translate(67,94)"><g class="vtree-node" transform="translate(-62,0)"><g transform="translate(0,20)"><g transform="translate(0,0)"><rect class="string-text" x="0" y="0" width="44" height="24"/><text x="4" y="20">name</text></g><g transform="translate(44,0)"><rect class="string-text" x="0" y="0" width="80" height="24"/><text x="4" y="20">Predict: 1.0</text></g></g><g><text x="62" y="16" text-anchor="middle">children[0]</text></g></g></g><g transform="translate(0,20)"><g transform="translate(0,0)"><rect class="string-text" x="0" y="0" width="44" height="24"/><text x="4" y="20">name</text></g><g transform="translate(44,0)"><rect class="string-text" x="0" y="0" width="90" height="24"/><text x="4" y="20">KTMT &gt; 5.75</text></g></g><g><text x="67" y="16" text-anchor="middle">children[1]</text></g></g></g><g transform="translate(0,20)"><g transform="translate(0,0)"><rect class="string-text" x="0" y="0" width="44" height="24"/><text x="4" y="20">name</text></g><g transform="translate(44,0)"><rect class="string-text" x="0" y="0" width="98" height="24"/><text x="4" y="20">KTMT &lt;= 6.25</text></g></g><g><text x="71" y="16" text-anchor="middle">children[0]</text></g></g><g class="vtree-node" transform="translate(81,0)"><path class="vtree-link" d="M67,32C67,79 67,79 67,126"/><g class="vtree-node" transform="translate(67,94)"><g class="vtree-node" transform="translate(-62,0)"><g transform="translate(0,20)"><g transform="translate(0,0)"><rect class="string-text" x="0" y="0" width="44" height="24"/><text x="4" y="20">name</text></g><g transform="translate(44,0)"><rect class="string-text" x="0" y="0" width="80" height="24"/><text x="4" y="20">Predict: 0.0</text></g></g><g><text x="62" y="16" text-anchor="middle">children[0]</text></g></g></g><g transform="translate(0,20)"><g transform="translate(0,0)"><rect class="string-text" x="0" y="0" width="44" height="24"/><text x="4" y="20">name</text></g><g transform="translate(44,0)"><rect class="string-text" x="0" y="0" width="90" height="24"/><text x="4" y="20">KTMT &gt; 6.25</text></g></g><g><text x="67" y="16" text-anchor="middle">children[1]</text></g></g></g><g transform="translate(0,20)"><g transform="translate(0,0)"><rect class="string-text" x="0" y="0" width="44" height="24"/><text x="4" y="20">name</text></g><g transform="translate(44,0)"><rect class="string-text" x="0" y="0" width="99" height="24"/><text x="4" y="20">CTRR &lt;= 7.75</text></g></g><g><text x="72" y="16" text-anchor="middle">children[0]</text></g></g><g class="vtree-node" transform="translate(152,0)"><path class="vtree-link" d="M68,32C68,79 68,79 68,126"/><g class="vtree-node" transform="translate(68,94)"><g class="vtree-node" transform="translate(-62,0)"><g transform="translate(0,20)"><g transform="translate(0,0)"><rect class="string-text" x="0" y="0" width="44" height="24"/><text x="4" y="20">name</text></g><g transform="translate(44,0)"><rect class="string-text" x="0" y="0" width="80" height="24"/><text x="4" y="20">Predict: 1.0</text></g></g><g><text x="62" y="16" text-anchor="middle">children[0]</text></g></g></g><g transform="translate(0,20)"><g transform="translate(0,0)"><rect class="string-text" x="0" y="0" width="44" height="24"/><text x="4" y="20">name</text></g><g transform="translate(44,0)"><rect class="string-text" x="0" y="0" width="91" height="24"/><text x="4" y="20">CTRR &gt; 7.75</text></g></g><g><text x="68" y="16" text-anchor="middle">children[1]</text></g></g></g><g transform="translate(0,20)"><g transform="translate(0,0)"><rect class="string-text" x="0" y="0" width="44" height="24"/><text x="4" y="20">name</text></g><g transform="translate(44,0)"><rect class="string-text" x="0" y="0" width="88" height="24"/><text x="4" y="20">HTS &lt;= 5.25</text></g></g><g><text x="66" y="16" text-anchor="middle">children[0]</text></g></g><g class="vtree-node" transform="translate(231,0)"><path class="vtree-link" d="M62,32C62,79 -161,79 -161,126"/><g class="vtree-node" transform="translate(62,94)"><path class="vtree-link" d="M-223,32C-223,32 281,32 281,32"/><g class="vtree-node" transform="translate(-294,0)"><path class="vtree-link" d="M71,32C71,79 -67,79 -67,126"/><g class="vtree-node" transform="translate(71,94)"><path class="vtree-link" d="M-138,32C-138,32 143,32 143,32"/><g class="vtree-node" transform="translate(-212,0)"><path class="vtree-link" d="M74,32C74,79 5,79 5,126"/><g class="vtree-node" transform="translate(74,94)"><path class="vtree-link" d="M-69,32C-69,32 74,32 74,32"/><g class="vtree-node" transform="translate(-138,0)"><path class="vtree-link" d="M69,32C69,79 69,79 69,126"/><g class="vtree-node" transform="translate(69,94)"><g class="vtree-node" transform="translate(-62,0)"><g transform="translate(0,20)"><g transform="translate(0,0)"><rect class="string-text" x="0" y="0" width="44" height="24"/><text x="4" y="20">name</text></g><g transform="translate(44,0)"><rect class="string-text" x="0" y="0" width="80" height="24"/><text x="4" y="20">Predict: 1.0</text></g></g><g><text x="62" y="16" text-anchor="middle">children[0]</text></g></g></g><g transform="translate(0,20)"><g transform="translate(0,0)"><rect class="string-text" x="0" y="0" width="44" height="24"/><text x="4" y="20">name</text></g><g transform="translate(44,0)"><rect class="string-text" x="0" y="0" width="93" height="24"/><text x="4" y="20">KTLT &lt;= 7.75</text></g></g><g><text x="69" y="16" text-anchor="middle">children[0]</text></g></g><g class="vtree-node" transform="translate(9,0)"><path class="vtree-link" d="M65,32C65,79 65,79 65,126"/><g class="vtree-node" transform="translate(65,94)"><g class="vtree-node" transform="translate(-62,0)"><g transform="translate(0,20)"><g transform="translate(0,0)"><rect class="string-text" x="0" y="0" width="44" height="24"/><text x="4" y="20">name</text></g><g transform="translate(44,0)"><rect class="string-text" x="0" y="0" width="80" height="24"/><text x="4" y="20">Predict: 0.0</text></g></g><g><text x="62" y="16" text-anchor="middle">children[0]</text></g></g></g><g transform="translate(0,20)"><g transform="translate(0,0)"><rect class="string-text" x="0" y="0" width="44" height="24"/><text x="4" y="20">name</text></g><g transform="translate(44,0)"><rect class="string-text" x="0" y="0" width="85" height="24"/><text x="4" y="20">KTLT &gt; 7.75</text></g></g><g><text x="65" y="16" text-anchor="middle">children[1]</text></g></g></g><g transform="translate(0,20)"><g transform="translate(0,0)"><rect class="string-text" x="0" y="0" width="44" height="24"/><text x="4" y="20">name</text></g><g transform="translate(44,0)"><rect class="string-text" x="0" y="0" width="104" height="24"/><text x="4" y="20">LTHDT &lt;= 8.25</text></g></g><g><text x="74" y="16" text-anchor="middle">children[0]</text></g></g><g class="vtree-node" transform="translate(73,0)"><path class="vtree-link" d="M70,32C70,79 3,79 3,126"/><g class="vtree-node" transform="translate(70,94)"><path class="vtree-link" d="M-67,32C-67,32 71,32 71,32"/><g class="vtree-node" transform="translate(-133,0)"><path class="vtree-link" d="M66,32C66,79 66,79 66,126"/><g class="vtree-node" transform="translate(66,94)"><g class="vtree-node" transform="translate(-62,0)"><g transform="translate(0,20)"><g transform="translate(0,0)"><rect class="string-text" x="0" y="0" width="44" height="24"/><text x="4" y="20">name</text></g><g transform="translate(44,0)"><rect class="string-text" x="0" y="0" width="80" height="24"/><text x="4" y="20">Predict: 0.0</text></g></g><g><text x="62" y="16" text-anchor="middle">children[0]</text></g></g></g><g transform="translate(0,20)"><g transform="translate(0,0)"><rect class="string-text" x="0" y="0" width="44" height="24"/><text x="4" y="20">name</text></g><g transform="translate(44,0)"><rect class="string-text" x="0" y="0" width="88" height="24"/><text x="4" y="20">HTS &lt;= 7.25</text></g></g><g><text x="66" y="16" text-anchor="middle">children[0]</text></g></g><g class="vtree-node" transform="translate(9,0)"><path class="vtree-link" d="M62,32C62,79 62,79 62,126"/><g class="vtree-node" transform="translate(62,94)"><g class="vtree-node" transform="translate(-62,0)"><g transform="translate(0,20)"><g transform="translate(0,0)"><rect class="string-text" x="0" y="0" width="44" height="24"/><text x="4" y="20">name</text></g><g transform="translate(44,0)"><rect class="string-text" x="0" y="0" width="80" height="24"/><text x="4" y="20">Predict: 1.0</text></g></g><g><text x="62" y="16" text-anchor="middle">children[0]</text></g></g></g><g transform="translate(0,20)"><g transform="translate(0,0)"><rect class="string-text" x="0" y="0" width="44" height="24"/><text x="4" y="20">name</text></g><g transform="translate(44,0)"><rect class="string-text" x="0" y="0" width="80" height="24"/><text x="4" y="20">HTS &gt; 7.25</text></g></g><g><text x="62" y="16" text-anchor="middle">children[1]</text></g></g></g><g transform="translate(0,20)"><g transform="translate(0,0)"><rect class="string-text" x="0" y="0" width="44" height="24"/><text x="4" y="20">name</text></g><g transform="translate(44,0)"><rect class="string-text" x="0" y="0" width="96" height="24"/><text x="4" y="20">LTHDT &gt; 8.25</text></g></g><g><text x="70" y="16" text-anchor="middle">children[1]</text></g></g></g><g transform="translate(0,20)"><g transform="translate(0,0)"><rect class="string-text" x="0" y="0" width="44" height="24"/><text x="4" y="20">name</text></g><g transform="translate(44,0)"><rect class="string-text" x="0" y="0" width="98" height="24"/><text x="4" y="20">KTMT &lt;= 7.25</text></g></g><g><text x="71" y="16" text-anchor="middle">children[0]</text></g></g><g class="vtree-node" transform="translate(214,0)"><path class="vtree-link" d="M67,32C67,79 -6,79 -6,126"/><g class="vtree-node" transform="translate(67,94)"><path class="vtree-link" d="M-73,32C-73,32 150,32 150,32"/><g class="vtree-node" transform="translate(-145,0)"><path class="vtree-link" d="M72,32C72,79 -1,79 -1,126"/><g class="vtree-node" transform="translate(72,94)"><path class="vtree-link" d="M-73,32C-73,32 77,32 77,32"/><g class="vtree-node" transform="translate(-145,0)"><path class="vtree-link" d="M72,32C72,79 72,79 72,126"/><g class="vtree-node" transform="translate(72,94)"><g class="vtree-node" transform="translate(-62,0)"><g transform="translate(0,20)"><g transform="translate(0,0)"><rect class="string-text" x="0" y="0" width="44" height="24"/><text x="4" y="20">name</text></g><g transform="translate(44,0)"><rect class="string-text" x="0" y="0" width="80" height="24"/><text x="4" y="20">Predict: 1.0</text></g></g><g><text x="62" y="16" text-anchor="middle">children[0]</text></g></g></g><g transform="translate(0,20)"><g transform="translate(0,0)"><rect class="string-text" x="0" y="0" width="44" height="24"/><text x="4" y="20">name</text></g><g transform="translate(44,0)"><rect class="string-text" x="0" y="0" width="100" height="24"/><text x="4" y="20">NMDT &lt;= 6.25</text></g></g><g><text x="72" y="16" text-anchor="middle">children[0]</text></g></g><g class="vtree-node" transform="translate(9,0)"><path class="vtree-link" d="M68,32C68,79 68,79 68,126"/><g class="vtree-node" transform="translate(68,94)"><g class="vtree-node" transform="translate(-62,0)"><g transform="translate(0,20)"><g transform="translate(0,0)"><rect class="string-text" x="0" y="0" width="44" height="24"/><text x="4" y="20">name</text></g><g transform="translate(44,0)"><rect class="string-text" x="0" y="0" width="80" height="24"/><text x="4" y="20">Predict: 0.0</text></g></g><g><text x="62" y="16" text-anchor="middle">children[0]</text></g></g></g><g transform="translate(0,20)"><g transform="translate(0,0)"><rect class="string-text" x="0" y="0" width="44" height="24"/><text x="4" y="20">name</text></g><g transform="translate(44,0)"><rect class="string-text" x="0" y="0" width="92" height="24"/><text x="4" y="20">NMDT &gt; 6.25</text></g></g><g><text x="68" y="16" text-anchor="middle">children[1]</text></g></g></g><g transform="translate(0,20)"><g transform="translate(0,0)"><rect class="string-text" x="0" y="0" width="44" height="24"/><text x="4" y="20">name</text></g><g transform="translate(44,0)"><rect class="string-text" x="0" y="0" width="99" height="24"/><text x="4" y="20">CTRR &lt;= 6.25</text></g></g><g><text x="72" y="16" text-anchor="middle">children[0]</text></g></g><g class="vtree-node" transform="translate(82,0)"><path class="vtree-link" d="M68,32C68,79 68,79 68,126"/><g class="vtree-node" transform="translate(68,94)"><g class="vtree-node" transform="translate(-62,0)"><g transform="translate(0,20)"><g transform="translate(0,0)"><rect class="string-text" x="0" y="0" width="44" height="24"/><text x="4" y="20">name</text></g><g transform="translate(44,0)"><rect class="string-text" x="0" y="0" width="80" height="24"/><text x="4" y="20">Predict: 1.0</text></g></g><g><text x="62" y="16" text-anchor="middle">children[0]</text></g></g></g><g transform="translate(0,20)"><g transform="translate(0,0)"><rect class="string-text" x="0" y="0" width="44" height="24"/><text x="4" y="20">name</text></g><g transform="translate(44,0)"><rect class="string-text" x="0" y="0" width="91" height="24"/><text x="4" y="20">CTRR &gt; 6.25</text></g></g><g><text x="68" y="16" text-anchor="middle">children[1]</text></g></g></g><g transform="translate(0,20)"><g transform="translate(0,0)"><rect class="string-text" x="0" y="0" width="44" height="24"/><text x="4" y="20">name</text></g><g transform="translate(44,0)"><rect class="string-text" x="0" y="0" width="90" height="24"/><text x="4" y="20">KTMT &gt; 7.25</text></g></g><g><text x="67" y="16" text-anchor="middle">children[1]</text></g></g></g><g transform="translate(0,20)"><g transform="translate(0,0)"><rect class="string-text" x="0" y="0" width="44" height="24"/><text x="4" y="20">name</text></g><g transform="translate(44,0)"><rect class="string-text" x="0" y="0" width="80" height="24"/><text x="4" y="20">HTS &gt; 5.25</text></g></g><g><text x="62" y="16" text-anchor="middle">children[1]</text></g></g></g><g transform="translate(0,20)"><g transform="translate(0,0)"><rect class="string-text" x="0" y="0" width="44" height="24"/><text x="4" y="20">name</text></g><g transform="translate(44,0)"><rect class="string-text" x="0" y="0" width="100" height="24"/><text x="4" y="20">NMDT &lt;= 7.25</text></g></g><g><text x="72" y="16" text-anchor="middle">children[0]</text></g></g><g class="vtree-node" transform="translate(728,0)"><path class="vtree-link" d="M68,32C68,79 -302,79 -302,126"/><g class="vtree-node" transform="translate(68,94)"><path class="vtree-link" d="M-370,32C-370,32 353,32 353,32"/><g class="vtree-node" transform="translate(-444,0)"><path class="vtree-link" d="M74,32C74,79 -64,79 -64,126"/><g class="vtree-node" transform="translate(74,94)"><path class="vtree-link" d="M-138,32C-138,32 215,32 215,32"/><g class="vtree-node" transform="translate(-210,0)"><path class="vtree-link" d="M72,32C72,79 -71,79 -71,126"/><g class="vtree-node" transform="translate(72,94)"><path class="vtree-link" d="M-143,32C-143,32 72,32 72,32"/><g class="vtree-node" transform="translate(-210,0)"><path class="vtree-link" d="M67,32C67,79 67,79 67,126"/><g class="vtree-node" transform="translate(67,94)"><g class="vtree-node" transform="translate(-62,0)"><g transform="translate(0,20)"><g transform="translate(0,0)"><rect class="string-text" x="0" y="0" width="44" height="24"/><text x="4" y="20">name</text></g><g transform="translate(44,0)"><rect class="string-text" x="0" y="0" width="80" height="24"/><text x="4" y="20">Predict: 0.0</text></g></g><g><text x="62" y="16" text-anchor="middle">children[0]</text></g></g></g><g transform="translate(0,20)"><g transform="translate(0,0)"><rect class="string-text" x="0" y="0" width="44" height="24"/><text x="4" y="20">name</text></g><g transform="translate(44,0)"><rect class="string-text" x="0" y="0" width="90" height="24"/><text x="4" y="20">HDH &lt;= 6.75</text></g></g><g><text x="67" y="16" text-anchor="middle">children[0]</text></g></g><g class="vtree-node" transform="translate(9,0)"><path class="vtree-link" d="M63,32C63,79 -6,79 -6,126"/><g class="vtree-node" transform="translate(63,94)"><path class="vtree-link" d="M-69,32C-69,32 74,32 74,32"/><g class="vtree-node" transform="translate(-138,0)"><path class="vtree-link" d="M69,32C69,79 69,79 69,126"/><g class="vtree-node" transform="translate(69,94)"><g class="vtree-node" transform="translate(-62,0)"><g transform="translate(0,20)"><g transform="translate(0,0)"><rect class="string-text" x="0" y="0" width="44" height="24"/><text x="4" y="20">name</text></g><g transform="translate(44,0)"><rect class="string-text" x="0" y="0" width="80" height="24"/><text x="4" y="20">Predict: 1.0</text></g></g><g><text x="62" y="16" text-anchor="middle">children[0]</text></g></g></g><g transform="translate(0,20)"><g transform="translate(0,0)"><rect class="string-text" x="0" y="0" width="44" height="24"/><text x="4" y="20">name</text></g><g transform="translate(44,0)"><rect class="string-text" x="0" y="0" width="93" height="24"/><text x="4" y="20">KTLT &lt;= 6.25</text></g></g><g><text x="69" y="16" text-anchor="middle">children[0]</text></g></g><g class="vtree-node" transform="translate(9,0)"><path class="vtree-link" d="M65,32C65,79 65,79 65,126"/><g class="vtree-node" transform="translate(65,94)"><g class="vtree-node" transform="translate(-62,0)"><g transform="translate(0,20)"><g transform="translate(0,0)"><rect class="string-text" x="0" y="0" width="44" height="24"/><text x="4" y="20">name</text></g><g transform="translate(44,0)"><rect class="string-text" x="0" y="0" width="80" height="24"/><text x="4" y="20">Predict: 0.0</text></g></g><g><text x="62" y="16" text-anchor="middle">children[0]</text></g></g></g><g transform="translate(0,20)"><g transform="translate(0,0)"><rect class="string-text" x="0" y="0" width="44" height="24"/><text x="4" y="20">name</text></g><g transform="translate(44,0)"><rect class="string-text" x="0" y="0" width="85" height="24"/><text x="4" y="20">KTLT &gt; 6.25</text></g></g><g><text x="65" y="16" text-anchor="middle">children[1]</text></g></g></g><g transform="translate(0,20)"><g transform="translate(0,0)"><rect class="string-text" x="0" y="0" width="44" height="24"/><text x="4" y="20">name</text></g><g transform="translate(44,0)"><rect class="string-text" x="0" y="0" width="82" height="24"/><text x="4" y="20">HDH &gt; 6.75</text></g></g><g><text x="63" y="16" text-anchor="middle">children[1]</text></g></g></g><g transform="translate(0,20)"><g transform="translate(0,0)"><rect class="string-text" x="0" y="0" width="44" height="24"/><text x="4" y="20">name</text></g><g transform="translate(44,0)"><rect class="string-text" x="0" y="0" width="100" height="24"/><text x="4" y="20">NMDT &lt;= 8.25</text></g></g><g><text x="72" y="16" text-anchor="middle">children[0]</text></g></g><g class="vtree-node" transform="translate(147,0)"><path class="vtree-link" d="M68,32C68,79 1,79 1,126"/><g class="vtree-node" transform="translate(68,94)"><path class="vtree-link" d="M-67,32C-67,32 71,32 71,32"/><g class="vtree-node" transform="translate(-133,0)"><path class="vtree-link" d="M66,32C66,79 66,79 66,126"/><g class="vtree-node" transform="translate(66,94)"><g class="vtree-node" transform="translate(-62,0)"><g transform="translate(0,20)"><g transform="translate(0,0)"><rect class="string-text" x="0" y="0" width="44" height="24"/><text x="4" y="20">name</text></g><g transform="translate(44,0)"><rect class="string-text" x="0" y="0" width="80" height="24"/><text x="4" y="20">Predict: 1.0</text></g></g><g><text x="62" y="16" text-anchor="middle">children[0]</text></g></g></g><g transform="translate(0,20)"><g transform="translate(0,0)"><rect class="string-text" x="0" y="0" width="44" height="24"/><text x="4" y="20">name</text></g><g transform="translate(44,0)"><rect class="string-text" x="0" y="0" width="88" height="24"/><text x="4" y="20">HTS &lt;= 4.75</text></g></g><g><text x="66" y="16" text-anchor="middle">children[0]</text></g></g><g class="vtree-node" transform="translate(9,0)"><path class="vtree-link" d="M62,32C62,79 62,79 62,126"/><g class="vtree-node" transform="translate(62,94)"><g class="vtree-node" transform="translate(-62,0)"><g transform="translate(0,20)"><g transform="translate(0,0)"><rect class="string-text" x="0" y="0" width="44" height="24"/><text x="4" y="20">name</text></g><g transform="translate(44,0)"><rect class="string-text" x="0" y="0" width="80" height="24"/><text x="4" y="20">Predict: 0.0</text></g></g><g><text x="62" y="16" text-anchor="middle">children[0]</text></g></g></g><g transform="translate(0,20)"><g transform="translate(0,0)"><rect class="string-text" x="0" y="0" width="44" height="24"/><text x="4" y="20">name</text></g><g transform="translate(44,0)"><rect class="string-text" x="0" y="0" width="80" height="24"/><text x="4" y="20">HTS &gt; 4.75</text></g></g><g><text x="62" y="16" text-anchor="middle">children[1]</text></g></g></g><g transform="translate(0,20)"><g transform="translate(0,0)"><rect class="string-text" x="0" y="0" width="44" height="24"/><text x="4" y="20">name</text></g><g transform="translate(44,0)"><rect class="string-text" x="0" y="0" width="92" height="24"/><text x="4" y="20">NMDT &gt; 8.25</text></g></g><g><text x="68" y="16" text-anchor="middle">children[1]</text></g></g></g><g transform="translate(0,20)"><g transform="translate(0,0)"><rect class="string-text" x="0" y="0" width="44" height="24"/><text x="4" y="20">name</text></g><g transform="translate(44,0)"><rect class="string-text" x="0" y="0" width="104" height="24"/><text x="4" y="20">LTHDT &lt;= 9.25</text></g></g><g><text x="74" y="16" text-anchor="middle">children[0]</text></g></g><g class="vtree-node" transform="translate(283,0)"><path class="vtree-link" d="M70,32C70,79 -79,79 -79,126"/><g class="vtree-node" transform="translate(70,94)"><path class="vtree-link" d="M-149,32C-149,32 221,32 221,32"/><g class="vtree-node" transform="translate(-216,0)"><path class="vtree-link" d="M67,32C67,79 -83,79 -83,126"/><g class="vtree-node" transform="translate(67,94)"><path class="vtree-link" d="M-150,32C-150,32 71,32 71,32"/><g class="vtree-node" transform="translate(-216,0)"><path class="vtree-link" d="M66,32C66,79 66,79 66,126"/><g class="vtree-node" transform="translate(66,94)"><g class="vtree-node" transform="translate(-62,0)"><g transform="translate(0,20)"><g transform="translate(0,0)"><rect class="string-text" x="0" y="0" width="44" height="24"/><text x="4" y="20">name</text></g><g transform="translate(44,0)"><rect class="string-text" x="0" y="0" width="80" height="24"/><text x="4" y="20">Predict: 1.0</text></g></g><g><text x="62" y="16" text-anchor="middle">children[0]</text></g></g></g><g transform="translate(0,20)"><g transform="translate(0,0)"><rect class="string-text" x="0" y="0" width="44" height="24"/><text x="4" y="20">name</text></g><g transform="translate(44,0)"><rect class="string-text" x="0" y="0" width="88" height="24"/><text x="4" y="20">HTS &lt;= 8.25</text></g></g><g><text x="66" y="16" text-anchor="middle">children[0]</text></g></g><g class="vtree-node" transform="translate(9,0)"><path class="vtree-link" d="M62,32C62,79 -11,79 -11,126"/><g class="vtree-node" transform="translate(62,94)"><path class="vtree-link" d="M-73,32C-73,32 77,32 77,32"/><g class="vtree-node" transform="translate(-145,0)"><path class="vtree-link" d="M72,32C72,79 72,79 72,126"/><g class="vtree-node" transform="translate(72,94)"><g class="vtree-node" transform="translate(-62,0)"><g transform="translate(0,20)"><g transform="translate(0,0)"><rect class="string-text" x="0" y="0" width="44" height="24"/><text x="4" y="20">name</text></g><g transform="translate(44,0)"><rect class="string-text" x="0" y="0" width="80" height="24"/><text x="4" y="20">Predict: 0.0</text></g></g><g><text x="62" y="16" text-anchor="middle">children[0]</text></g></g></g><g transform="translate(0,20)"><g transform="translate(0,0)"><rect class="string-text" x="0" y="0" width="44" height="24"/><text x="4" y="20">name</text></g><g transform="translate(44,0)"><rect class="string-text" x="0" y="0" width="100" height="24"/><text x="4" y="20">NMDT &lt;= 7.75</text></g></g><g><text x="72" y="16" text-anchor="middle">children[0]</text></g></g><g class="vtree-node" transform="translate(9,0)"><path class="vtree-link" d="M68,32C68,79 68,79 68,126"/><g class="vtree-node" transform="translate(68,94)"><g class="vtree-node" transform="translate(-62,0)"><g transform="translate(0,20)"><g transform="translate(0,0)"><rect class="string-text" x="0" y="0" width="44" height="24"/><text x="4" y="20">name</text></g><g transform="translate(44,0)"><rect class="string-text" x="0" y="0" width="80" height="24"/><text x="4" y="20">Predict: 1.0</text></g></g><g><text x="62" y="16" text-anchor="middle">children[0]</text></g></g></g><g transform="translate(0,20)"><g transform="translate(0,0)"><rect class="string-text" x="0" y="0" width="44" height="24"/><text x="4" y="20">name</text></g><g transform="translate(44,0)"><rect class="string-text" x="0" y="0" width="92" height="24"/><text x="4" y="20">NMDT &gt; 7.75</text></g></g><g><text x="68" y="16" text-anchor="middle">children[1]</text></g></g></g><g transform="translate(0,20)"><g transform="translate(0,0)"><rect class="string-text" x="0" y="0" width="44" height="24"/><text x="4" y="20">name</text></g><g transform="translate(44,0)"><rect class="string-text" x="0" y="0" width="80" height="24"/><text x="4" y="20">HTS &gt; 8.25</text></g></g><g><text x="62" y="16" text-anchor="middle">children[1]</text></g></g></g><g transform="translate(0,20)"><g transform="translate(0,0)"><rect class="string-text" x="0" y="0" width="44" height="24"/><text x="4" y="20">name</text></g><g transform="translate(44,0)"><rect class="string-text" x="0" y="0" width="90" height="24"/><text x="4" y="20">HDH &lt;= 8.75</text></g></g><g><text x="67" y="16" text-anchor="middle">children[0]</text></g></g><g class="vtree-node" transform="translate(158,0)"><path class="vtree-link" d="M63,32C63,79 -9,79 -9,126"/><g class="vtree-node" transform="translate(63,94)"><path class="vtree-link" d="M-72,32C-72,32 77,32 77,32"/><g class="vtree-node" transform="translate(-144,0)"><path class="vtree-link" d="M72,32C72,79 72,79 72,126"/><g class="vtree-node" transform="translate(72,94)"><g class="vtree-node" transform="translate(-62,0)"><g transform="translate(0,20)"><g transform="translate(0,0)"><rect class="string-text" x="0" y="0" width="44" height="24"/><text x="4" y="20">name</text></g><g transform="translate(44,0)"><rect class="string-text" x="0" y="0" width="80" height="24"/><text x="4" y="20">Predict: 0.0</text></g></g><g><text x="62" y="16" text-anchor="middle">children[0]</text></g></g></g><g transform="translate(0,20)"><g transform="translate(0,0)"><rect class="string-text" x="0" y="0" width="44" height="24"/><text x="4" y="20">name</text></g><g transform="translate(44,0)"><rect class="string-text" x="0" y="0" width="99" height="24"/><text x="4" y="20">CTRR &lt;= 7.75</text></g></g><g><text x="72" y="16" text-anchor="middle">children[0]</text></g></g><g class="vtree-node" transform="translate(9,0)"><path class="vtree-link" d="M68,32C68,79 68,79 68,126"/><g class="vtree-node" transform="translate(68,94)"><g class="vtree-node" transform="translate(-62,0)"><g transform="translate(0,20)"><g transform="translate(0,0)"><rect class="string-text" x="0" y="0" width="44" height="24"/><text x="4" y="20">name</text></g><g transform="translate(44,0)"><rect class="string-text" x="0" y="0" width="80" height="24"/><text x="4" y="20">Predict: 1.0</text></g></g><g><text x="62" y="16" text-anchor="middle">children[0]</text></g></g></g><g transform="translate(0,20)"><g transform="translate(0,0)"><rect class="string-text" x="0" y="0" width="44" height="24"/><text x="4" y="20">name</text></g><g transform="translate(44,0)"><rect class="string-text" x="0" y="0" width="91" height="24"/><text x="4" y="20">CTRR &gt; 7.75</text></g></g><g><text x="68" y="16" text-anchor="middle">children[1]</text></g></g></g><g transform="translate(0,20)"><g transform="translate(0,0)"><rect class="string-text" x="0" y="0" width="44" height="24"/><text x="4" y="20">name</text></g><g transform="translate(44,0)"><rect class="string-text" x="0" y="0" width="82" height="24"/><text x="4" y="20">HDH &gt; 8.75</text></g></g><g><text x="63" y="16" text-anchor="middle">children[1]</text></g></g></g><g transform="translate(0,20)"><g transform="translate(0,0)"><rect class="string-text" x="0" y="0" width="44" height="24"/><text x="4" y="20">name</text></g><g transform="translate(44,0)"><rect class="string-text" x="0" y="0" width="96" height="24"/><text x="4" y="20">LTHDT &gt; 9.25</text></g></g><g><text x="70" y="16" text-anchor="middle">children[1]</text></g></g></g><g transform="translate(0,20)"><g transform="translate(0,0)"><rect class="string-text" x="0" y="0" width="44" height="24"/><text x="4" y="20">name</text></g><g transform="translate(44,0)"><rect class="string-text" x="0" y="0" width="92" height="24"/><text x="4" y="20">NMDT &gt; 7.25</text></g></g><g><text x="68" y="16" text-anchor="middle">children[1]</text></g></g></g><g transform="translate(0,0)"><rect class="string-text" x="0" y="0" width="44" height="24"/><text x="4" y="20">name</text></g><g transform="translate(44,0)"><rect class="string-text" x="0" y="0" width="39" height="24"/><text x="4" y="20">Root</text></g></g></g></g></svg>