<?xml version="1.0" standalone="no"?>
<svg xmlns:xlink="http://www.w3.org/1999/xlink" xmlns="http://www.w3.org/2000/svg" class="vtree" width="960" height="800"><style>
.vtree-node text { font: 14px sans-serif; }
.vtree-link { fill: none; stroke: #888; stroke-width: 2px; }
.vtree-table { stroke-width: 2px; stroke: steelblue; }
path.vtree-table { fill: white; }
g.vtree-node rect { fill: white; stroke: black; stroke-width: 1px; }
g.vtree-node rect.number-text { fill: #d8f0ed; }
g.vtree-node rect.string-text { fill: #e7f0db; }
g.vtree-node rect.boolean-text { fill: #e1d8f0; }
g.vtree-node rect.null-text { fill: #888; }
</style><g class="vtree-root" transform="translate(308.0650500493481,147.82251691009742)scale(0.3514957629850916)"><g class="vtree-node" transform="translate(480,106)"><g class="vtree-node" transform="translate(-42,0)"><path class="vtree-link" d="M42,12C42,59 -554,59 -554,106"/><g class="vtree-node" transform="translate(42,74)"><path class="vtree-link" d="M-596,32C-596,32 693,32 693,32"/><g class="vtree-node" transform="translate(-668,0)"><path class="vtree-link" d="M72,32C72,79 -307,79 -307,126"/><g class="vtree-node" transform="translate(72,94)"><path class="vtree-link" d="M-379,32C-379,32 314,32 314,32"/><g class="vtree-node" transform="translate(-459,0)"><path class="vtree-link" d="M80,32C80,79 -1,79 -1,126"/><g class="vtree-node" transform="translate(80,94)"><path class="vtree-link" d="M-81,32C-81,32 233,32 233,32"/><g class="vtree-node" transform="translate(-161,0)"><path class="vtree-link" d="M80,32C80,79 -68,79 -68,126"/><g class="vtree-node" transform="translate(80,94)"><path class="vtree-link" d="M-148,32C-148,32 85,32 85,32"/><g class="vtree-node" transform="translate(-228,0)"><path class="vtree-link" d="M80,32C80,79 80,79 80,126"/><g class="vtree-node" transform="translate(80,94)"><g class="vtree-node" transform="translate(-62,0)"><g transform="translate(0,20)"><g transform="translate(0,0)"><rect class="string-text" x="0" y="0" width="44" height="24"/><text x="4" y="20">name</text></g><g transform="translate(44,0)"><rect class="string-text" x="0" y="0" width="80" height="24"/><text x="4" y="20">Predict: 0.0</text></g></g><g><text x="62" y="16" text-anchor="middle">children[0]</text></g></g></g><g transform="translate(0,20)"><g transform="translate(0,0)"><rect class="string-text" x="0" y="0" width="44" height="24"/><text x="4" y="20">name</text></g><g transform="translate(44,0)"><rect class="string-text" x="0" y="0" width="116" height="24"/><text x="4" y="20">CTDLGT &lt;= 1.25</text></g></g><g><text x="80" y="16" text-anchor="middle">children[0]</text></g></g><g class="vtree-node" transform="translate(9,0)"><path class="vtree-link" d="M76,32C76,79 4,79 4,126"/><g class="vtree-node" transform="translate(76,94)"><path class="vtree-link" d="M-72,32C-72,32 76,32 76,32"/><g class="vtree-node" transform="translate(-143,0)"><path class="vtree-link" d="M71,32C71,79 71,79 71,126"/><g class="vtree-node" transform="translate(71,94)"><g class="vtree-node" transform="translate(-62,0)"><g transform="translate(0,20)"><g transform="translate(0,0)"><rect class="string-text" x="0" y="0" width="44" height="24"/><text x="4" y="20">name</text></g><g transform="translate(44,0)"><rect class="string-text" x="0" y="0" width="80" height="24"/><text x="4" y="20">Predict: 1.0</text></g></g><g><text x="62" y="16" text-anchor="middle">children[0]</text></g></g></g><g transform="translate(0,20)"><g transform="translate(0,0)"><rect class="string-text" x="0" y="0" width="44" height="24"/><text x="4" y="20">name</text></g><g transform="translate(44,0)"><rect class="string-text" x="0" y="0" width="98" height="24"/><text x="4" y="20">KTMT &lt;= 5.75</text></g></g><g><text x="71" y="16" text-anchor="middle">children[0]</text></g></g><g class="vtree-node" transform="translate(9,0)"><path class="vtree-link" d="M67,32C67,79 67,79 67,126"/><g class="vtree-node" transform="translate(67,94)"><g class="vtree-node" transform="translate(-62,0)"><g transform="translate(0,20)"><g transform="translate(0,0)"><rect class="string-text" x="0" y="0" width="44" height="24"/><text x="4" y="20">name</text></g><g transform="translate(44,0)"><rect class="string-text" x="0" y="0" width="80" height="24"/><text x="4" y="20">Predict: 0.0</text></g></g><g><text x="62" y="16" text-anchor="middle">children[0]</text></g></g></g><g transform="translate(0,20)"><g transform="translate(0,0)"><rect class="string-text" x="0" y="0" width="44" height="24"/><text x="4" y="20">name</text></g><g transform="translate(44,0)"><rect class="string-text" x="0" y="0" width="90" height="24"/><text x="4" y="20">KTMT &gt; 5.75</text></g></g><g><text x="67" y="16" text-anchor="middle">children[1]</text></g></g></g><g transform="translate(0,20)"><g transform="translate(0,0)"><rect class="string-text" x="0" y="0" width="44" height="24"/><text x="4" y="20">name</text></g><g transform="translate(44,0)"><rect class="string-text" x="0" y="0" width="108" height="24"/><text x="4" y="20">CTDLGT &gt; 1.25</text></g></g><g><text x="76" y="16" text-anchor="middle">children[1]</text></g></g></g><g transform="translate(0,20)"><g transform="translate(0,0)"><rect class="string-text" x="0" y="0" width="44" height="24"/><text x="4" y="20">name</text></g><g transform="translate(44,0)"><rect class="string-text" x="0" y="0" width="116" height="24"/><text x="4" y="20">CTDLGT &lt;= 3.75</text></g></g><g><text x="80" y="16" text-anchor="middle">children[0]</text></g></g><g class="vtree-node" transform="translate(157,0)"><path class="vtree-link" d="M76,32C76,79 76,79 76,126"/><g class="vtree-node" transform="translate(76,94)"><g class="vtree-node" transform="translate(-62,0)"><g transform="translate(0,20)"><g transform="translate(0,0)"><rect class="string-text" x="0" y="0" width="44" height="24"/><text x="4" y="20">name</text></g><g transform="translate(44,0)"><rect class="string-text" x="0" y="0" width="80" height="24"/><text x="4" y="20">Predict: 0.0</text></g></g><g><text x="62" y="16" text-anchor="middle">children[0]</text></g></g></g><g transform="translate(0,20)"><g transform="translate(0,0)"><rect class="string-text" x="0" y="0" width="44" height="24"/><text x="4" y="20">name</text></g><g transform="translate(44,0)"><rect class="string-text" x="0" y="0" width="108" height="24"/><text x="4" y="20">CTDLGT &gt; 3.75</text></g></g><g><text x="76" y="16" text-anchor="middle">children[1]</text></g></g></g><g transform="translate(0,20)"><g transform="translate(0,0)"><rect class="string-text" x="0" y="0" width="44" height="24"/><text x="4" y="20">name</text></g><g transform="translate(44,0)"><rect class="string-text" x="0" y="0" width="116" height="24"/><text x="4" y="20">CTDLGT &lt;= 5.25</text></g></g><g><text x="80" y="16" text-anchor="middle">children[0]</text></g></g><g class="vtree-node" transform="translate(238,0)"><path class="vtree-link" d="M76,32C76,79 -153,79 -153,126"/><g class="vtree-node" transform="translate(76,94)"><path class="vtree-link" d="M-229,32C-229,32 150,32 150,32"/><g class="vtree-node" transform="translate(-301,0)"><path class="vtree-link" d="M72,32C72,79 -1,79 -1,126"/><g class="vtree-node" transform="translate(72,94)"><path class="vtree-link" d="M-73,32C-73,32 77,32 77,32"/><g class="vtree-node" transform="translate(-145,0)"><path class="vtree-link" d="M72,32C72,79 72,79 72,126"/><g class="vtree-node" transform="translate(72,94)"><g class="vtree-node" transform="translate(-62,0)"><g transform="translate(0,20)"><g transform="translate(0,0)"><rect class="string-text" x="0" y="0" width="44" height="24"/><text x="4" y="20">name</text></g><g transform="translate(44,0)"><rect class="string-text" x="0" y="0" width="80" height="24"/><text x="4" y="20">Predict: 1.0</text></g></g><g><text x="62" y="16" text-anchor="middle">children[0]</text></g></g></g><g transform="translate(0,20)"><g transform="translate(0,0)"><rect class="string-text" x="0" y="0" width="44" height="24"/><text x="4" y="20">name</text></g><g transform="translate(44,0)"><rect class="string-text" x="0" y="0" width="100" height="24"/><text x="4" y="20">NMDT &lt;= 5.75</text></g></g><g><text x="72" y="16" text-anchor="middle">children[0]</text></g></g><g class="vtree-node" transform="translate(9,0)"><path class="vtree-link" d="M68,32C68,79 68,79 68,126"/><g class="vtree-node" transform="translate(68,94)"><g class="vtree-node" transform="translate(-62,0)"><g transform="translate(0,20)"><g transform="translate(0,0)"><rect class="string-text" x="0" y="0" width="44" height="24"/><text x="4" y="20">name</text></g><g transform="translate(44,0)"><rect class="string-text" x="0" y="0" width="80" height="24"/><text x="4" y="20">Predict: 0.0</text></g></g><g><text x="62" y="16" text-anchor="middle">children[0]</text></g></g></g><g transform="translate(0,20)"><g transform="translate(0,0)"><rect class="string-text" x="0" y="0" width="44" height="24"/><text x="4" y="20">name</text></g><g transform="translate(44,0)"><rect class="string-text" x="0" y="0" width="92" height="24"/><text x="4" y="20">NMDT &gt; 5.75</text></g></g><g><text x="68" y="16" text-anchor="middle">children[1]</text></g></g></g><g transform="translate(0,20)"><g transform="translate(0,0)"><rect class="string-text" x="0" y="0" width="44" height="24"/><text x="4" y="20">name</text></g><g transform="translate(44,0)"><rect class="string-text" x="0" y="0" width="100" height="24"/><text x="4" y="20">NMDT &lt;= 6.25</text></g></g><g><text x="72" y="16" text-anchor="middle">children[0]</text></g></g><g class="vtree-node" transform="translate(82,0)"><path class="vtree-link" d="M68,32C68,79 -13,79 -13,126"/><g class="vtree-node" transform="translate(68,94)"><path class="vtree-link" d="M-81,32C-81,32 148,32 148,32"/><g class="vtree-node" transform="translate(-161,0)"><path class="vtree-link" d="M80,32C80,79 8,79 8,126"/><g class="vtree-node" transform="translate(80,94)"><path class="vtree-link" d="M-72,32C-72,32 76,32 76,32"/><g class="vtree-node" transform="translate(-143,0)"><path class="vtree-link" d="M71,32C71,79 71,79 71,126"/><g class="vtree-node" transform="translate(71,94)"><g class="vtree-node" transform="translate(-62,0)"><g transform="translate(0,20)"><g transform="translate(0,0)"><rect class="string-text" x="0" y="0" width="44" height="24"/><text x="4" y="20">name</text></g><g transform="translate(44,0)"><rect class="string-text" x="0" y="0" width="80" height="24"/><text x="4" y="20">Predict: 0.0</text></g></g><g><text x="62" y="16" text-anchor="middle">children[0]</text></g></g></g><g transform="translate(0,20)"><g transform="translate(0,0)"><rect class="string-text" x="0" y="0" width="44" height="24"/><text x="4" y="20">name</text></g><g transform="translate(44,0)"><rect class="string-text" x="0" y="0" width="98" height="24"/><text x="4" y="20">KTMT &lt;= 5.75</text></g></g><g><text x="71" y="16" text-anchor="middle">children[0]</text></g></g><g class="vtree-node" transform="translate(9,0)"><path class="vtree-link" d="M67,32C67,79 67,79 67,126"/><g class="vtree-node" transform="translate(67,94)"><g class="vtree-node" transform="translate(-62,0)"><g transform="translate(0,20)"><g transform="translate(0,0)"><rect class="string-text" x="0" y="0" width="44" height="24"/><text x="4" y="20">name</text></g><g transform="translate(44,0)"><rect class="string-text" x="0" y="0" width="80" height="24"/><text x="4" y="20">Predict: 1.0</text></g></g><g><text x="62" y="16" text-anchor="middle">children[0]</text></g></g></g><g transform="translate(0,20)"><g transform="translate(0,0)"><rect class="string-text" x="0" y="0" width="44" height="24"/><text x="4" y="20">name</text></g><g transform="translate(44,0)"><rect class="string-text" x="0" y="0" width="90" height="24"/><text x="4" y="20">KTMT &gt; 5.75</text></g></g><g><text x="67" y="16" text-anchor="middle">children[1]</text></g></g></g><g transform="translate(0,20)"><g transform="translate(0,0)"><rect class="string-text" x="0" y="0" width="44" height="24"/><text x="4" y="20">name</text></g><g transform="translate(44,0)"><rect class="string-text" x="0" y="0" width="116" height="24"/><text x="4" y="20">CTDLGT &lt;= 6.25</text></g></g><g><text x="80" y="16" text-anchor="middle">children[0]</text></g></g><g class="vtree-node" transform="translate(72,0)"><path class="vtree-link" d="M76,32C76,79 76,79 76,126"/><g class="vtree-node" transform="translate(76,94)"><g class="vtree-node" transform="translate(-62,0)"><g transform="translate(0,20)"><g transform="translate(0,0)"><rect class="string-text" x="0" y="0" width="44" height="24"/><text x="4" y="20">name</text></g><g transform="translate(44,0)"><rect class="string-text" x="0" y="0" width="80" height="24"/><text x="4" y="20">Predict: 0.0</text></g></g><g><text x="62" y="16" text-anchor="middle">children[0]</text></g></g></g><g transform="translate(0,20)"><g transform="translate(0,0)"><rect class="string-text" x="0" y="0" width="44" height="24"/><text x="4" y="20">name</text></g><g transform="translate(44,0)"><rect class="string-text" x="0" y="0" width="108" height="24"/><text x="4" y="20">CTDLGT &gt; 6.25</text></g></g><g><text x="76" y="16" text-anchor="middle">children[1]</text></g></g></g><g transform="translate(0,20)"><g transform="translate(0,0)"><rect class="string-text" x="0" y="0" width="44" height="24"/><text x="4" y="20">name</text></g><g transform="translate(44,0)"><rect class="string-text" x="0" y="0" width="92" height="24"/><text x="4" y="20">NMDT &gt; 6.25</text></g></g><g><text x="68" y="16" text-anchor="middle">children[1]</text></g></g></g><g transform="translate(0,20)"><g transform="translate(0,0)"><rect class="string-text" x="0" y="0" width="44" height="24"/><text x="4" y="20">name</text></g><g transform="translate(44,0)"><rect class="string-text" x="0" y="0" width="108" height="24"/><text x="4" y="20">CTDLGT &gt; 5.25</text></g></g><g><text x="76" y="16" text-anchor="middle">children[1]</text></g></g></g><g transform="translate(0,20)"><g transform="translate(0,0)"><rect class="string-text" x="0" y="0" width="44" height="24"/><text x="4" y="20">name</text></g><g transform="translate(44,0)"><rect class="string-text" x="0" y="0" width="100" height="24"/><text x="4" y="20">NMDT &lt;= 7.25</text></g></g><g><text x="72" y="16" text-anchor="middle">children[0]</text></g></g><g class="vtree-node" transform="translate(625,0)"><path class="vtree-link" d="M68,32C68,79 -230,79 -230,126"/><g class="vtree-node" transform="translate(68,94)"><path class="vtree-link" d="M-298,32C-298,32 298,32 298,32"/><g class="vtree-node" transform="translate(-369,0)"><path class="vtree-link" d="M71,32C71,79 -154,79 -154,126"/><g class="vtree-node" transform="translate(71,94)"><path class="vtree-link" d="M-225,32C-225,32 73,32 73,32"/><g class="vtree-node" transform="translate(-293,0)"><path class="vtree-link" d="M68,32C68,79 68,79 68,126"/><g class="vtree-node" transform="translate(68,94)"><g class="vtree-node" transform="translate(-62,0)"><g transform="translate(0,20)"><g transform="translate(0,0)"><rect class="string-text" x="0" y="0" width="44" height="24"/><text x="4" y="20">name</text></g><g transform="translate(44,0)"><rect class="string-text" x="0" y="0" width="80" height="24"/><text x="4" y="20">Predict: 0.0</text></g></g><g><text x="62" y="16" text-anchor="middle">children[0]</text></g></g></g><g transform="translate(0,20)"><g transform="translate(0,0)"><rect class="string-text" x="0" y="0" width="44" height="24"/><text x="4" y="20">name</text></g><g transform="translate(44,0)"><rect class="string-text" x="0" y="0" width="92" height="24"/><text x="4" y="20">MHH &lt;= 6.25</text></g></g><g><text x="68" y="16" text-anchor="middle">children[0]</text></g></g><g class="vtree-node" transform="translate(9,0)"><path class="vtree-link" d="M64,32C64,79 -85,79 -85,126"/><g class="vtree-node" transform="translate(64,94)"><path class="vtree-link" d="M-149,32C-149,32 76,32 76,32"/><g class="vtree-node" transform="translate(-220,0)"><path class="vtree-link" d="M71,32C71,79 71,79 71,126"/><g class="vtree-node" transform="translate(71,94)"><g class="vtree-node" transform="translate(-62,0)"><g transform="translate(0,20)"><g transform="translate(0,0)"><rect class="string-text" x="0" y="0" width="44" height="24"/><text x="4" y="20">name</text></g><g transform="translate(44,0)"><rect class="string-text" x="0" y="0" width="80" height="24"/><text x="4" y="20">Predict: 0.0</text></g></g><g><text x="62" y="16" text-anchor="middle">children[0]</text></g></g></g><g transform="translate(0,20)"><g transform="translate(0,0)"><rect class="string-text" x="0" y="0" width="44" height="24"/><text x="4" y="20">name</text></g><g transform="translate(44,0)"><rect class="string-text" x="0" y="0" width="98" height="24"/><text x="4" y="20">KTMT &lt;= 5.25</text></g></g><g><text x="71" y="16" text-anchor="middle">children[0]</text></g></g><g class="vtree-node" transform="translate(9,0)"><path class="vtree-link" d="M67,32C67,79 -5,79 -5,126"/><g class="vtree-node" transform="translate(67,94)"><path class="vtree-link" d="M-72,32C-72,32 77,32 77,32"/><g class="vtree-node" transform="translate(-144,0)"><path class="vtree-link" d="M72,32C72,79 72,79 72,126"/><g class="vtree-node" transform="translate(72,94)"><g class="vtree-node" transform="translate(-62,0)"><g transform="translate(0,20)"><g transform="translate(0,0)"><rect class="string-text" x="0" y="0" width="44" height="24"/><text x="4" y="20">name</text></g><g transform="translate(44,0)"><rect class="string-text" x="0" y="0" width="80" height="24"/><text x="4" y="20">Predict: 1.0</text></g></g><g><text x="62" y="16" text-anchor="middle">children[0]</text></g></g></g><g transform="translate(0,20)"><g transform="translate(0,0)"><rect class="string-text" x="0" y="0" width="44" height="24"/><text x="4" y="20">name</text></g><g transform="translate(44,0)"><rect class="string-text" x="0" y="0" width="99" height="24"/><text x="4" y="20">CTRR &lt;= 8.25</text></g></g><g><text x="72" y="16" text-anchor="middle">children[0]</text></g></g><g class="vtree-node" transform="translate(9,0)"><path class="vtree-link" d="M68,32C68,79 68,79 68,126"/><g class="vtree-node" transform="translate(68,94)"><g class="vtree-node" transform="translate(-62,0)"><g transform="translate(0,20)"><g transform="translate(0,0)"><rect class="string-text" x="0" y="0" width="44" height="24"/><text x="4" y="20">name</text></g><g transform="translate(44,0)"><rect class="string-text" x="0" y="0" width="80" height="24"/><text x="4" y="20">Predict: 0.0</text></g></g><g><text x="62" y="16" text-anchor="middle">children[0]</text></g></g></g><g transform="translate(0,20)"><g transform="translate(0,0)"><rect class="string-text" x="0" y="0" width="44" height="24"/><text x="4" y="20">name</text></g><g transform="translate(44,0)"><rect class="string-text" x="0" y="0" width="91" height="24"/><text x="4" y="20">CTRR &gt; 8.25</text></g></g><g><text x="68" y="16" text-anchor="middle">children[1]</text></g></g></g><g transform="translate(0,20)"><g transform="translate(0,0)"><rect class="string-text" x="0" y="0" width="44" height="24"/><text x="4" y="20">name</text></g><g transform="translate(44,0)"><rect class="string-text" x="0" y="0" width="90" height="24"/><text x="4" y="20">KTMT &gt; 5.25</text></g></g><g><text x="67" y="16" text-anchor="middle">children[1]</text></g></g></g><g transform="translate(0,20)"><g transform="translate(0,0)"><rect class="string-text" x="0" y="0" width="44" height="24"/><text x="4" y="20">name</text></g><g transform="translate(44,0)"><rect class="string-text" x="0" y="0" width="84" height="24"/><text x="4" y="20">MHH &gt; 6.25</text></g></g><g><text x="64" y="16" text-anchor="middle">children[1]</text></g></g></g><g transform="translate(0,20)"><g transform="translate(0,0)"><rect class="string-text" x="0" y="0" width="44" height="24"/><text x="4" y="20">name</text></g><g transform="translate(44,0)"><rect class="string-text" x="0" y="0" width="98" height="24"/><text x="4" y="20">KTMT &lt;= 6.25</text></g></g><g><text x="71" y="16" text-anchor="middle">children[0]</text></g></g><g class="vtree-node" transform="translate(231,0)"><path class="vtree-link" d="M67,32C67,79 -14,79 -14,126"/><g class="vtree-node" transform="translate(67,94)"><path class="vtree-link" d="M-81,32C-81,32 217,32 217,32"/><g class="vtree-node" transform="translate(-161,0)"><path class="vtree-link" d="M80,32C80,79 13,79 13,126"/><g class="vtree-node" transform="translate(80,94)"><path class="vtree-link" d="M-67,32C-67,32 150,32 150,32"/><g class="vtree-node" transform="translate(-133,0)"><path class="vtree-link" d="M66,32C66,79 -7,79 -7,126"/><g class="vtree-node" transform="translate(66,94)"><path class="vtree-link" d="M-73,32C-73,32 77,32 77,32"/><g class="vtree-node" transform="translate(-145,0)"><path class="vtree-link" d="M72,32C72,79 72,79 72,126"/><g class="vtree-node" transform="translate(72,94)"><g class="vtree-node" transform="translate(-62,0)"><g transform="translate(0,20)"><g transform="translate(0,0)"><rect class="string-text" x="0" y="0" width="44" height="24"/><text x="4" y="20">name</text></g><g transform="translate(44,0)"><rect class="string-text" x="0" y="0" width="80" height="24"/><text x="4" y="20">Predict: 0.0</text></g></g><g><text x="62" y="16" text-anchor="middle">children[0]</text></g></g></g><g transform="translate(0,20)"><g transform="translate(0,0)"><rect class="string-text" x="0" y="0" width="44" height="24"/><text x="4" y="20">name</text></g><g transform="translate(44,0)"><rect class="string-text" x="0" y="0" width="100" height="24"/><text x="4" y="20">NMDT &lt;= 8.25</text></g></g><g><text x="72" y="16" text-anchor="middle">children[0]</text></g></g><g class="vtree-node" transform="translate(9,0)"><path class="vtree-link" d="M68,32C68,79 68,79 68,126"/><g class="vtree-node" transform="translate(68,94)"><g class="vtree-node" transform="translate(-62,0)"><g transform="translate(0,20)"><g transform="translate(0,0)"><rect class="string-text" x="0" y="0" width="44" height="24"/><text x="4" y="20">name</text></g><g transform="translate(44,0)"><rect class="string-text" x="0" y="0" width="80" height="24"/><text x="4" y="20">Predict: 1.0</text></g></g><g><text x="62" y="16" text-anchor="middle">children[0]</text></g></g></g><g transform="translate(0,20)"><g transform="translate(0,0)"><rect class="string-text" x="0" y="0" width="44" height="24"/><text x="4" y="20">name</text></g><g transform="translate(44,0)"><rect class="string-text" x="0" y="0" width="92" height="24"/><text x="4" y="20">NMDT &gt; 8.25</text></g></g><g><text x="68" y="16" text-anchor="middle">children[1]</text></g></g></g><g transform="translate(0,20)"><g transform="translate(0,0)"><rect class="string-text" x="0" y="0" width="44" height="24"/><text x="4" y="20">name</text></g><g transform="translate(44,0)"><rect class="string-text" x="0" y="0" width="88" height="24"/><text x="4" y="20">HTS &lt;= 4.75</text></g></g><g><text x="66" y="16" text-anchor="middle">children[0]</text></g></g><g class="vtree-node" transform="translate(88,0)"><path class="vtree-link" d="M62,32C62,79 62,79 62,126"/><g class="vtree-node" transform="translate(62,94)"><g class="vtree-node" transform="translate(-62,0)"><g transform="translate(0,20)"><g transform="translate(0,0)"><rect class="string-text" x="0" y="0" width="44" height="24"/><text x="4" y="20">name</text></g><g transform="translate(44,0)"><rect class="string-text" x="0" y="0" width="80" height="24"/><text x="4" y="20">Predict: 0.0</text></g></g><g><text x="62" y="16" text-anchor="middle">children[0]</text></g></g></g><g transform="translate(0,20)"><g transform="translate(0,0)"><rect class="string-text" x="0" y="0" width="44" height="24"/><text x="4" y="20">name</text></g><g transform="translate(44,0)"><rect class="string-text" x="0" y="0" width="80" height="24"/><text x="4" y="20">HTS &gt; 4.75</text></g></g><g><text x="62" y="16" text-anchor="middle">children[1]</text></g></g></g><g transform="translate(0,20)"><g transform="translate(0,0)"><rect class="string-text" x="0" y="0" width="44" height="24"/><text x="4" y="20">name</text></g><g transform="translate(44,0)"><rect class="string-text" x="0" y="0" width="116" height="24"/><text x="4" y="20">CTDLGT &lt;= 6.75</text></g></g><g><text x="80" y="16" text-anchor="middle">children[0]</text></g></g><g class="vtree-node" transform="translate(141,0)"><path class="vtree-link" d="M76,32C76,79 76,79 76,126"/><g class="vtree-node" transform="translate(76,94)"><g class="vtree-node" transform="translate(-62,0)"><g transform="translate(0,20)"><g transform="translate(0,0)"><rect class="string-text" x="0" y="0" width="44" height="24"/><text x="4" y="20">name</text></g><g transform="translate(44,0)"><rect class="string-text" x="0" y="0" width="80" height="24"/><text x="4" y="20">Predict: 0.0</text></g></g><g><text x="62" y="16" text-anchor="middle">children[0]</text></g></g></g><g transform="translate(0,20)"><g transform="translate(0,0)"><rect class="string-text" x="0" y="0" width="44" height="24"/><text x="4" y="20">name</text></g><g transform="translate(44,0)"><rect class="string-text" x="0" y="0" width="108" height="24"/><text x="4" y="20">CTDLGT &gt; 6.75</text></g></g><g><text x="76" y="16" text-anchor="middle">children[1]</text></g></g></g><g transform="translate(0,20)"><g transform="translate(0,0)"><rect class="string-text" x="0" y="0" width="44" height="24"/><text x="4" y="20">name</text></g><g transform="translate(44,0)"><rect class="string-text" x="0" y="0" width="90" height="24"/><text x="4" y="20">KTMT &gt; 6.25</text></g></g><g><text x="67" y="16" text-anchor="middle">children[1]</text></g></g></g><g transform="translate(0,20)"><g transform="translate(0,0)"><rect class="string-text" x="0" y="0" width="44" height="24"/><text x="4" y="20">name</text></g><g transform="translate(44,0)"><rect class="string-text" x="0" y="0" width="92" height="24"/><text x="4" y="20">NMDT &gt; 7.25</text></g></g><g><text x="68" y="16" text-anchor="middle">children[1]</text></g></g></g><g transform="translate(0,0)"><rect class="string-text" x="0" y="0" width="44" height="24"/><text x="4" y="20">name</text></g><g transform="translate(44,0)"><rect class="string-text" x="0" y="0" width="39" height="24"/><text x="4" y="20">Root</text></g></g></g></g></svg>