<?xml version="1.0" standalone="no"?>
<svg xmlns:xlink="http://www.w3.org/1999/xlink" xmlns="http://www.w3.org/2000/svg" class="vtree" width="960" height="800"><style>
.vtree-node text { font: 14px sans-serif; }
.vtree-link { fill: none; stroke: #888; stroke-width: 2px; }
.vtree-table { stroke-width: 2px; stroke: steelblue; }
path.vtree-table { fill: white; }
g.vtree-node rect { fill: white; stroke: black; stroke-width: 1px; }
g.vtree-node rect.number-text { fill: #d8f0ed; }
g.vtree-node rect.string-text { fill: #e7f0db; }
g.vtree-node rect.boolean-text { fill: #e1d8f0; }
g.vtree-node rect.null-text { fill: #888; }
</style><g class="vtree-root" transform="translate(290.08944428050677,136.52281267248128)scale(0.4006606652353773)"><g class="vtree-node" transform="translate(480,106)"><g class="vtree-node" transform="translate(-42,0)"><path class="vtree-link" d="M42,12C42,59 -682,59 -682,106"/><g class="vtree-node" transform="translate(42,74)"><path class="vtree-link" d="M-724,32C-724,32 439,32 439,32"/><g class="vtree-node" transform="translate(-796,0)"><path class="vtree-link" d="M72,32C72,79 -299,79 -299,126"/><g class="vtree-node" transform="translate(72,94)"><path class="vtree-link" d="M-371,32C-371,32 68,32 68,32"/><g class="vtree-node" transform="translate(-435,0)"><path class="vtree-link" d="M64,32C64,79 64,79 64,126"/><g class="vtree-node" transform="translate(64,94)"><g class="vtree-node" transform="translate(-62,0)"><g transform="translate(0,20)"><g transform="translate(0,0)"><rect class="string-text" x="0" y="0" width="44" height="24"/><text x="4" y="20">name</text></g><g transform="translate(44,0)"><rect class="string-text" x="0" y="0" width="80" height="24"/><text x="4" y="20">Predict: 0.0</text></g></g><g><text x="62" y="16" text-anchor="middle">children[0]</text></g></g></g><g transform="translate(0,20)"><g transform="translate(0,0)"><rect class="string-text" x="0" y="0" width="44" height="24"/><text x="4" y="20">name</text></g><g transform="translate(44,0)"><rect class="string-text" x="0" y="0" width="83" height="24"/><text x="4" y="20">HDH &lt;= 4.5</text></g></g><g><text x="64" y="16" text-anchor="middle">children[0]</text></g></g><g class="vtree-node" transform="translate(9,0)"><path class="vtree-link" d="M59,32C59,79 -95,79 -95,126"/><g class="vtree-node" transform="translate(59,94)"><path class="vtree-link" d="M-154,32C-154,32 217,32 217,32"/><g class="vtree-node" transform="translate(-222,0)"><path class="vtree-link" d="M68,32C68,79 1,79 1,126"/><g class="vtree-node" transform="translate(68,94)"><path class="vtree-link" d="M-67,32C-67,32 150,32 150,32"/><g class="vtree-node" transform="translate(-133,0)"><path class="vtree-link" d="M66,32C66,79 -7,79 -7,126"/><g class="vtree-node" transform="translate(66,94)"><path class="vtree-link" d="M-73,32C-73,32 77,32 77,32"/><g class="vtree-node" transform="translate(-145,0)"><path class="vtree-link" d="M72,32C72,79 72,79 72,126"/><g class="vtree-node" transform="translate(72,94)"><g class="vtree-node" transform="translate(-62,0)"><g transform="translate(0,20)"><g transform="translate(0,0)"><rect class="string-text" x="0" y="0" width="44" height="24"/><text x="4" y="20">name</text></g><g transform="translate(44,0)"><rect class="string-text" x="0" y="0" width="80" height="24"/><text x="4" y="20">Predict: 0.0</text></g></g><g><text x="62" y="16" text-anchor="middle">children[0]</text></g></g></g><g transform="translate(0,20)"><g transform="translate(0,0)"><rect class="string-text" x="0" y="0" width="44" height="24"/><text x="4" y="20">name</text></g><g transform="translate(44,0)"><rect class="string-text" x="0" y="0" width="100" height="24"/><text x="4" y="20">NMDT &lt;= 6.25</text></g></g><g><text x="72" y="16" text-anchor="middle">children[0]</text></g></g><g class="vtree-node" transform="translate(9,0)"><path class="vtree-link" d="M68,32C68,79 68,79 68,126"/><g class="vtree-node" transform="translate(68,94)"><g class="vtree-node" transform="translate(-62,0)"><g transform="translate(0,20)"><g transform="translate(0,0)"><rect class="string-text" x="0" y="0" width="44" height="24"/><text x="4" y="20">name</text></g><g transform="translate(44,0)"><rect class="string-text" x="0" y="0" width="80" height="24"/><text x="4" y="20">Predict: 1.0</text></g></g><g><text x="62" y="16" text-anchor="middle">children[0]</text></g></g></g><g transform="translate(0,20)"><g transform="translate(0,0)"><rect class="string-text" x="0" y="0" width="44" height="24"/><text x="4" y="20">name</text></g><g transform="translate(44,0)"><rect class="string-text" x="0" y="0" width="92" height="24"/><text x="4" y="20">NMDT &gt; 6.25</text></g></g><g><text x="68" y="16" text-anchor="middle">children[1]</text></g></g></g><g transform="translate(0,20)"><g transform="translate(0,0)"><rect class="string-text" x="0" y="0" width="44" height="24"/><text x="4" y="20">name</text></g><g transform="translate(44,0)"><rect class="string-text" x="0" y="0" width="88" height="24"/><text x="4" y="20">HTS &lt;= 3.75</text></g></g><g><text x="66" y="16" text-anchor="middle">children[0]</text></g></g><g class="vtree-node" transform="translate(88,0)"><path class="vtree-link" d="M62,32C62,79 62,79 62,126"/><g class="vtree-node" transform="translate(62,94)"><g class="vtree-node" transform="translate(-62,0)"><g transform="translate(0,20)"><g transform="translate(0,0)"><rect class="string-text" x="0" y="0" width="44" height="24"/><text x="4" y="20">name</text></g><g transform="translate(44,0)"><rect class="string-text" x="0" y="0" width="80" height="24"/><text x="4" y="20">Predict: 1.0</text></g></g><g><text x="62" y="16" text-anchor="middle">children[0]</text></g></g></g><g transform="translate(0,20)"><g transform="translate(0,0)"><rect class="string-text" x="0" y="0" width="44" height="24"/><text x="4" y="20">name</text></g><g transform="translate(44,0)"><rect class="string-text" x="0" y="0" width="80" height="24"/><text x="4" y="20">HTS &gt; 3.75</text></g></g><g><text x="62" y="16" text-anchor="middle">children[1]</text></g></g></g><g transform="translate(0,20)"><g transform="translate(0,0)"><rect class="string-text" x="0" y="0" width="44" height="24"/><text x="4" y="20">name</text></g><g transform="translate(44,0)"><rect class="string-text" x="0" y="0" width="92" height="24"/><text x="4" y="20">MHH &lt;= 8.25</text></g></g><g><text x="68" y="16" text-anchor="middle">children[0]</text></g></g><g class="vtree-node" transform="translate(153,0)"><path class="vtree-link" d="M64,32C64,79 -11,79 -11,126"/><g class="vtree-node" transform="translate(64,94)"><path class="vtree-link" d="M-75,32C-75,32 79,32 79,32"/><g class="vtree-node" transform="translate(-149,0)"><path class="vtree-link" d="M74,32C74,79 74,79 74,126"/><g class="vtree-node" transform="translate(74,94)"><g class="vtree-node" transform="translate(-62,0)"><g transform="translate(0,20)"><g transform="translate(0,0)"><rect class="string-text" x="0" y="0" width="44" height="24"/><text x="4" y="20">name</text></g><g transform="translate(44,0)"><rect class="string-text" x="0" y="0" width="80" height="24"/><text x="4" y="20">Predict: 0.0</text></g></g><g><text x="62" y="16" text-anchor="middle">children[0]</text></g></g></g><g transform="translate(0,20)"><g transform="translate(0,0)"><rect class="string-text" x="0" y="0" width="44" height="24"/><text x="4" y="20">name</text></g><g transform="translate(44,0)"><rect class="string-text" x="0" y="0" width="104" height="24"/><text x="4" y="20">LTHDT &lt;= 9.25</text></g></g><g><text x="74" y="16" text-anchor="middle">children[0]</text></g></g><g class="vtree-node" transform="translate(9,0)"><path class="vtree-link" d="M70,32C70,79 70,79 70,126"/><g class="vtree-node" transform="translate(70,94)"><g class="vtree-node" transform="translate(-62,0)"><g transform="translate(0,20)"><g transform="translate(0,0)"><rect class="string-text" x="0" y="0" width="44" height="24"/><text x="4" y="20">name</text></g><g transform="translate(44,0)"><rect class="string-text" x="0" y="0" width="80" height="24"/><text x="4" y="20">Predict: 1.0</text></g></g><g><text x="62" y="16" text-anchor="middle">children[0]</text></g></g></g><g transform="translate(0,20)"><g transform="translate(0,0)"><rect class="string-text" x="0" y="0" width="44" height="24"/><text x="4" y="20">name</text></g><g transform="translate(44,0)"><rect class="string-text" x="0" y="0" width="96" height="24"/><text x="4" y="20">LTHDT &gt; 9.25</text></g></g><g><text x="70" y="16" text-anchor="middle">children[1]</text></g></g></g><g transform="translate(0,20)"><g transform="translate(0,0)"><rect class="string-text" x="0" y="0" width="44" height="24"/><text x="4" y="20">name</text></g><g transform="translate(44,0)"><rect class="string-text" x="0" y="0" width="84" height="24"/><text x="4" y="20">MHH &gt; 8.25</text></g></g><g><text x="64" y="16" text-anchor="middle">children[1]</text></g></g></g><g transform="translate(0,20)"><g transform="translate(0,0)"><rect class="string-text" x="0" y="0" width="44" height="24"/><text x="4" y="20">name</text></g><g transform="translate(44,0)"><rect class="string-text" x="0" y="0" width="74" height="24"/><text x="4" y="20">HDH &gt; 4.5</text></g></g><g><text x="59" y="16" text-anchor="middle">children[1]</text></g></g></g><g transform="translate(0,20)"><g transform="translate(0,0)"><rect class="string-text" x="0" y="0" width="44" height="24"/><text x="4" y="20">name</text></g><g transform="translate(44,0)"><rect class="string-text" x="0" y="0" width="100" height="24"/><text x="4" y="20">NMDT &lt;= 7.25</text></g></g><g><text x="72" y="16" text-anchor="middle">children[0]</text></g></g><g class="vtree-node" transform="translate(371,0)"><path class="vtree-link" d="M68,32C68,79 -307,79 -307,126"/><g class="vtree-node" transform="translate(68,94)"><path class="vtree-link" d="M-375,32C-375,32 349,32 349,32"/><g class="vtree-node" transform="translate(-446,0)"><path class="vtree-link" d="M71,32C71,79 -140,79 -140,126"/><g class="vtree-node" transform="translate(71,94)"><path class="vtree-link" d="M-211,32C-211,32 138,32 138,32"/><g class="vtree-node" transform="translate(-283,0)"><path class="vtree-link" d="M72,32C72,79 5,79 5,126"/><g class="vtree-node" transform="translate(72,94)"><path class="vtree-link" d="M-67,32C-67,32 71,32 71,32"/><g class="vtree-node" transform="translate(-133,0)"><path class="vtree-link" d="M66,32C66,79 66,79 66,126"/><g class="vtree-node" transform="translate(66,94)"><g class="vtree-node" transform="translate(-62,0)"><g transform="translate(0,20)"><g transform="translate(0,0)"><rect class="string-text" x="0" y="0" width="44" height="24"/><text x="4" y="20">name</text></g><g transform="translate(44,0)"><rect class="string-text" x="0" y="0" width="80" height="24"/><text x="4" y="20">Predict: 0.0</text></g></g><g><text x="62" y="16" text-anchor="middle">children[0]</text></g></g></g><g transform="translate(0,20)"><g transform="translate(0,0)"><rect class="string-text" x="0" y="0" width="44" height="24"/><text x="4" y="20">name</text></g><g transform="translate(44,0)"><rect class="string-text" x="0" y="0" width="88" height="24"/><text x="4" y="20">HTS &lt;= 7.75</text></g></g><g><text x="66" y="16" text-anchor="middle">children[0]</text></g></g><g class="vtree-node" transform="translate(9,0)"><path class="vtree-link" d="M62,32C62,79 62,79 62,126"/><g class="vtree-node" transform="translate(62,94)"><g class="vtree-node" transform="translate(-62,0)"><g transform="translate(0,20)"><g transform="translate(0,0)"><rect class="string-text" x="0" y="0" width="44" height="24"/><text x="4" y="20">name</text></g><g transform="translate(44,0)"><rect class="string-text" x="0" y="0" width="80" height="24"/><text x="4" y="20">Predict: 1.0</text></g></g><g><text x="62" y="16" text-anchor="middle">children[0]</text></g></g></g><g transform="translate(0,20)"><g transform="translate(0,0)"><rect class="string-text" x="0" y="0" width="44" height="24"/><text x="4" y="20">name</text></g><g transform="translate(44,0)"><rect class="string-text" x="0" y="0" width="80" height="24"/><text x="4" y="20">HTS &gt; 7.75</text></g></g><g><text x="62" y="16" text-anchor="middle">children[1]</text></g></g></g><g transform="translate(0,20)"><g transform="translate(0,0)"><rect class="string-text" x="0" y="0" width="44" height="24"/><text x="4" y="20">name</text></g><g transform="translate(44,0)"><rect class="string-text" x="0" y="0" width="99" height="24"/><text x="4" y="20">CTRR &lt;= 6.75</text></g></g><g><text x="72" y="16" text-anchor="middle">children[0]</text></g></g><g class="vtree-node" transform="translate(70,0)"><path class="vtree-link" d="M68,32C68,79 0,79 0,126"/><g class="vtree-node" transform="translate(68,94)"><path class="vtree-link" d="M-68,32C-68,32 143,32 143,32"/><g class="vtree-node" transform="translate(-135,0)"><path class="vtree-link" d="M67,32C67,79 -2,79 -2,126"/><g class="vtree-node" transform="translate(67,94)"><path class="vtree-link" d="M-69,32C-69,32 74,32 74,32"/><g class="vtree-node" transform="translate(-138,0)"><path class="vtree-link" d="M69,32C69,79 69,79 69,126"/><g class="vtree-node" transform="translate(69,94)"><g class="vtree-node" transform="translate(-62,0)"><g transform="translate(0,20)"><g transform="translate(0,0)"><rect class="string-text" x="0" y="0" width="44" height="24"/><text x="4" y="20">name</text></g><g transform="translate(44,0)"><rect class="string-text" x="0" y="0" width="80" height="24"/><text x="4" y="20">Predict: 1.0</text></g></g><g><text x="62" y="16" text-anchor="middle">children[0]</text></g></g></g><g transform="translate(0,20)"><g transform="translate(0,0)"><rect class="string-text" x="0" y="0" width="44" height="24"/><text x="4" y="20">name</text></g><g transform="translate(44,0)"><rect class="string-text" x="0" y="0" width="93" height="24"/><text x="4" y="20">KTLT &lt;= 6.75</text></g></g><g><text x="69" y="16" text-anchor="middle">children[0]</text></g></g><g class="vtree-node" transform="translate(9,0)"><path class="vtree-link" d="M65,32C65,79 65,79 65,126"/><g class="vtree-node" transform="translate(65,94)"><g class="vtree-node" transform="translate(-62,0)"><g transform="translate(0,20)"><g transform="translate(0,0)"><rect class="string-text" x="0" y="0" width="44" height="24"/><text x="4" y="20">name</text></g><g transform="translate(44,0)"><rect class="string-text" x="0" y="0" width="80" height="24"/><text x="4" y="20">Predict: 0.0</text></g></g><g><text x="62" y="16" text-anchor="middle">children[0]</text></g></g></g><g transform="translate(0,20)"><g transform="translate(0,0)"><rect class="string-text" x="0" y="0" width="44" height="24"/><text x="4" y="20">name</text></g><g transform="translate(44,0)"><rect class="string-text" x="0" y="0" width="85" height="24"/><text x="4" y="20">KTLT &gt; 6.75</text></g></g><g><text x="65" y="16" text-anchor="middle">children[1]</text></g></g></g><g transform="translate(0,20)"><g transform="translate(0,0)"><rect class="string-text" x="0" y="0" width="44" height="24"/><text x="4" y="20">name</text></g><g transform="translate(44,0)"><rect class="string-text" x="0" y="0" width="90" height="24"/><text x="4" y="20">HDH &lt;= 7.75</text></g></g><g><text x="67" y="16" text-anchor="middle">children[0]</text></g></g><g class="vtree-node" transform="translate(80,0)"><path class="vtree-link" d="M63,32C63,79 63,79 63,126"/><g class="vtree-node" transform="translate(63,94)"><g class="vtree-node" transform="translate(-62,0)"><g transform="translate(0,20)"><g transform="translate(0,0)"><rect class="string-text" x="0" y="0" width="44" height="24"/><text x="4" y="20">name</text></g><g transform="translate(44,0)"><rect class="string-text" x="0" y="0" width="80" height="24"/><text x="4" y="20">Predict: 1.0</text></g></g><g><text x="62" y="16" text-anchor="middle">children[0]</text></g></g></g><g transform="translate(0,20)"><g transform="translate(0,0)"><rect class="string-text" x="0" y="0" width="44" height="24"/><text x="4" y="20">name</text></g><g transform="translate(44,0)"><rect class="string-text" x="0" y="0" width="82" height="24"/><text x="4" y="20">HDH &gt; 7.75</text></g></g><g><text x="63" y="16" text-anchor="middle">children[1]</text></g></g></g><g transform="translate(0,20)"><g transform="translate(0,0)"><rect class="string-text" x="0" y="0" width="44" height="24"/><text x="4" y="20">name</text></g><g transform="translate(44,0)"><rect class="string-text" x="0" y="0" width="91" height="24"/><text x="4" y="20">CTRR &gt; 6.75</text></g></g><g><text x="68" y="16" text-anchor="middle">children[1]</text></g></g></g><g transform="translate(0,20)"><g transform="translate(0,0)"><rect class="string-text" x="0" y="0" width="44" height="24"/><text x="4" y="20">name</text></g><g transform="translate(44,0)"><rect class="string-text" x="0" y="0" width="98" height="24"/><text x="4" y="20">KTMT &lt;= 7.25</text></g></g><g><text x="71" y="16" text-anchor="middle">children[0]</text></g></g><g class="vtree-node" transform="translate(282,0)"><path class="vtree-link" d="M67,32C67,79 -73,79 -73,126"/><g class="vtree-node" transform="translate(67,94)"><path class="vtree-link" d="M-140,32C-140,32 235,32 235,32"/><g class="vtree-node" transform="translate(-212,0)"><path class="vtree-link" d="M72,32C72,79 3,79 3,126"/><g class="vtree-node" transform="translate(72,94)"><path class="vtree-link" d="M-69,32C-69,32 166,32 166,32"/><g class="vtree-node" transform="translate(-137,0)"><path class="vtree-link" d="M68,32C68,79 -13,79 -13,126"/><g class="vtree-node" transform="translate(68,94)"><path class="vtree-link" d="M-81,32C-81,32 85,32 85,32"/><g class="vtree-node" transform="translate(-161,0)"><path class="vtree-link" d="M80,32C80,79 80,79 80,126"/><g class="vtree-node" transform="translate(80,94)"><g class="vtree-node" transform="translate(-62,0)"><g transform="translate(0,20)"><g transform="translate(0,0)"><rect class="string-text" x="0" y="0" width="44" height="24"/><text x="4" y="20">name</text></g><g transform="translate(44,0)"><rect class="string-text" x="0" y="0" width="80" height="24"/><text x="4" y="20">Predict: 0.0</text></g></g><g><text x="62" y="16" text-anchor="middle">children[0]</text></g></g></g><g transform="translate(0,20)"><g transform="translate(0,0)"><rect class="string-text" x="0" y="0" width="44" height="24"/><text x="4" y="20">name</text></g><g transform="translate(44,0)"><rect class="string-text" x="0" y="0" width="116" height="24"/><text x="4" y="20">CTDLGT &lt;= 7.25</text></g></g><g><text x="80" y="16" text-anchor="middle">children[0]</text></g></g><g class="vtree-node" transform="translate(9,0)"><path class="vtree-link" d="M76,32C76,79 76,79 76,126"/><g class="vtree-node" transform="translate(76,94)"><g class="vtree-node" transform="translate(-62,0)"><g transform="translate(0,20)"><g transform="translate(0,0)"><rect class="string-text" x="0" y="0" width="44" height="24"/><text x="4" y="20">name</text></g><g transform="translate(44,0)"><rect class="string-text" x="0" y="0" width="80" height="24"/><text x="4" y="20">Predict: 1.0</text></g></g><g><text x="62" y="16" text-anchor="middle">children[0]</text></g></g></g><g transform="translate(0,20)"><g transform="translate(0,0)"><rect class="string-text" x="0" y="0" width="44" height="24"/><text x="4" y="20">name</text></g><g transform="translate(44,0)"><rect class="string-text" x="0" y="0" width="108" height="24"/><text x="4" y="20">CTDLGT &gt; 7.25</text></g></g><g><text x="76" y="16" text-anchor="middle">children[1]</text></g></g></g><g transform="translate(0,20)"><g transform="translate(0,0)"><rect class="string-text" x="0" y="0" width="44" height="24"/><text x="4" y="20">name</text></g><g transform="translate(44,0)"><rect class="string-text" x="0" y="0" width="92" height="24"/><text x="4" y="20">MHH &lt;= 8.75</text></g></g><g><text x="68" y="16" text-anchor="middle">children[0]</text></g></g><g class="vtree-node" transform="translate(102,0)"><path class="vtree-link" d="M64,32C64,79 64,79 64,126"/><g class="vtree-node" transform="translate(64,94)"><g class="vtree-node" transform="translate(-62,0)"><g transform="translate(0,20)"><g transform="translate(0,0)"><rect class="string-text" x="0" y="0" width="44" height="24"/><text x="4" y="20">name</text></g><g transform="translate(44,0)"><rect class="string-text" x="0" y="0" width="80" height="24"/><text x="4" y="20">Predict: 0.0</text></g></g><g><text x="62" y="16" text-anchor="middle">children[0]</text></g></g></g><g transform="translate(0,20)"><g transform="translate(0,0)"><rect class="string-text" x="0" y="0" width="44" height="24"/><text x="4" y="20">name</text></g><g transform="translate(44,0)"><rect class="string-text" x="0" y="0" width="84" height="24"/><text x="4" y="20">MHH &gt; 8.75</text></g></g><g><text x="64" y="16" text-anchor="middle">children[1]</text></g></g></g><g transform="translate(0,20)"><g transform="translate(0,0)"><rect class="string-text" x="0" y="0" width="44" height="24"/><text x="4" y="20">name</text></g><g transform="translate(44,0)"><rect class="string-text" x="0" y="0" width="100" height="24"/><text x="4" y="20">NMDT &lt;= 7.75</text></g></g><g><text x="72" y="16" text-anchor="middle">children[0]</text></g></g><g class="vtree-node" transform="translate(167,0)"><path class="vtree-link" d="M68,32C68,79 0,79 0,126"/><g class="vtree-node" transform="translate(68,94)"><path class="vtree-link" d="M-68,32C-68,32 72,32 72,32"/><g class="vtree-node" transform="translate(-135,0)"><path class="vtree-link" d="M67,32C67,79 67,79 67,126"/><g class="vtree-node" transform="translate(67,94)"><g class="vtree-node" transform="translate(-62,0)"><g transform="translate(0,20)"><g transform="translate(0,0)"><rect class="string-text" x="0" y="0" width="44" height="24"/><text x="4" y="20">name</text></g><g transform="translate(44,0)"><rect class="string-text" x="0" y="0" width="80" height="24"/><text x="4" y="20">Predict: 0.0</text></g></g><g><text x="62" y="16" text-anchor="middle">children[0]</text></g></g></g><g transform="translate(0,20)"><g transform="translate(0,0)"><rect class="string-text" x="0" y="0" width="44" height="24"/><text x="4" y="20">name</text></g><g transform="translate(44,0)"><rect class="string-text" x="0" y="0" width="90" height="24"/><text x="4" y="20">HDH &lt;= 9.25</text></g></g><g><text x="67" y="16" text-anchor="middle">children[0]</text></g></g><g class="vtree-node" transform="translate(9,0)"><path class="vtree-link" d="M63,32C63,79 63,79 63,126"/><g class="vtree-node" transform="translate(63,94)"><g class="vtree-node" transform="translate(-62,0)"><g transform="translate(0,20)"><g transform="translate(0,0)"><rect class="string-text" x="0" y="0" width="44" height="24"/><text x="4" y="20">name</text></g><g transform="translate(44,0)"><rect class="string-text" x="0" y="0" width="80" height="24"/><text x="4" y="20">Predict: 1.0</text></g></g><g><text x="62" y="16" text-anchor="middle">children[0]</text></g></g></g><g transform="translate(0,20)"><g transform="translate(0,0)"><rect class="string-text" x="0" y="0" width="44" height="24"/><text x="4" y="20">name</text></g><g transform="translate(44,0)"><rect class="string-text" x="0" y="0" width="82" height="24"/><text x="4" y="20">HDH &gt; 9.25</text></g></g><g><text x="63" y="16" text-anchor="middle">children[1]</text></g></g></g><g transform="translate(0,20)"><g transform="translate(0,0)"><rect class="string-text" x="0" y="0" width="44" height="24"/><text x="4" y="20">name</text></g><g transform="translate(44,0)"><rect class="string-text" x="0" y="0" width="92" height="24"/><text x="4" y="20">NMDT &gt; 7.75</text></g></g><g><text x="68" y="16" text-anchor="middle">children[1]</text></g></g></g><g transform="translate(0,20)"><g transform="translate(0,0)"><rect class="string-text" x="0" y="0" width="44" height="24"/><text x="4" y="20">name</text></g><g transform="translate(44,0)"><rect class="string-text" x="0" y="0" width="90" height="24"/><text x="4" y="20">KTMT &gt; 7.25</text></g></g><g><text x="67" y="16" text-anchor="middle">children[1]</text></g></g></g><g transform="translate(0,20)"><g transform="translate(0,0)"><rect class="string-text" x="0" y="0" width="44" height="24"/><text x="4" y="20">name</text></g><g transform="translate(44,0)"><rect class="string-text" x="0" y="0" width="92" height="24"/><text x="4" y="20">NMDT &gt; 7.25</text></g></g><g><text x="68" y="16" text-anchor="middle">children[1]</text></g></g></g><g transform="translate(0,0)"><rect class="string-text" x="0" y="0" width="44" height="24"/><text x="4" y="20">name</text></g><g transform="translate(44,0)"><rect class="string-text" x="0" y="0" width="39" height="24"/><text x="4" y="20">Root</text></g></g></g></g></svg>